<?xml version="1.0" encoding="utf-8"?>
<!-- Generator: Adobe Illustrator 21.1.0, SVG Export Plug-In . SVG Version: 6.00 Build 0)  -->
<svg version="1.1" id="Calque_1" xmlns="http://www.w3.org/2000/svg" xmlns:xlink="http://www.w3.org/1999/xlink" x="0px" y="0px"
	 viewBox="0 0 24 24" style="enable-background:new 0 0 24 24;" xml:space="preserve">
<style type="text/css">
	.st0{fill:none;}
	.st1{fill:#999999;}
</style>
<path class="st0" d="M0,0h24v24H0V0z"/>
<path class="st1" d="M3,12c0,2.2,0.9,4.2,2.4,5.6L3,20h6v-6l-2.2,2.2C5.7,15.1,5,13.7,5,12c0-2.6,1.7-4.8,4-5.7V4.3
	C5.6,5.2,3,8.3,3,12z M11,17h2v-2h-2V17z M21,4h-6v6l2.2-2.2C18.3,8.9,19,10.3,19,12c0,2.6-1.7,4.8-4,5.6v2.1c3.5-0.9,6-4,6-7.7
	c0-2.2-0.9-4.2-2.4-5.6L21,4z M11,13h2V7h-2V13z"/>
</svg>
